<svg xmlns="http://www.w3.org/2000/svg" viewBox="0 0 48 48">
  <defs>
    <style>.cls-1{fill:#db5669}.cls-2{fill:#c4455e}.cls-5{fill:#edebf2}</style>
  </defs>
  <g id="Merchandise_Clothes" data-name="Merchandise Clothes">
    <path class="cls-1" d="M32 1a8 8 0 0 1-16 0z"/>
    <path class="cls-2" d="M29 1a8 8 0 0 1-6.5 7.85A8 8 0 0 0 32 1z"/>
    <path class="cls-1" d="m47 19-9 8v20H10V27l-9-8s2.43-5.57 7-16l8-2a8 8 0 0 0 16 0l8 2c4.57 10.43 7 16 7 16z"/>
    <path d="m47 19-9 8v18H19a6 6 0 0 1-6-6V1.75L16 1a8 8 0 0 0 16 0l8 2z" style="fill:#f26674"/>
    <path class="cls-1" d="M40 18v7.22L38 27v-9a1 1 0 0 1 2 0z"/>
    <path class="cls-2" d="M10 18v9l-2-1.78V18a1 1 0 0 1 2 0z"/>
    <path d="m5.29 19.71-3.2-3.2.86-2 3.76 3.76a1 1 0 0 1-1.42 1.44z" style="fill:#dad7e5"/>
    <path class="cls-5" d="M45.91 16.51C42.44 20 42.56 20 42 20a1 1 0 0 1-.71-1.71l3.76-3.76zM17 37a1 1 0 0 1-.71-1.71l14-14a1 1 0 0 1 1.42 1.42C16.41 38 17.59 37 17 37zM19 28a4 4 0 1 1 4-4 4 4 0 0 1-4 4zm0-6a2 2 0 1 0 2 2 2 2 0 0 0-2-2zM29 38a4 4 0 1 1 4-4 4 4 0 0 1-4 4zm0-6a2 2 0 1 0 2 2 2 2 0 0 0-2-2z"/>
  </g>
</svg>
